<svg xmlns="http://www.w3.org/2000/svg" version="1.1" width="78mm" height="59mm" viewBox="0 0 78 59">
<rect x="0" y="0" width="78" height="59" fill="#FFFFFF"/>
<g transform="translate(-32.00 -9.00)" font-family="Helvetica, Arial, sans-serif" stroke-linecap="round" stroke-linejoin="round">
<g data-ref="#PWR02"><polyline points="81.28,49.53 81.28,50.80 82.55,50.80 81.28,52.07 80.01,50.80 81.28,50.80" fill="none" stroke="#840000" stroke-width="0.254"/><line x1="81.28" y1="49.53" x2="81.28" y2="49.53" stroke="#840000" stroke-width="0.15"/><line x1="81.28" y1="49.53" x2="81.28" y2="49.53" stroke="#840000" stroke-width="0.15"/><text x="81.28" y="55.05" font-size="1.27" text-anchor="middle" fill="#006464">GND</text></g>
<g data-ref="#PWR03"><line x1="86.36" y1="54.61" x2="86.36" y2="54.61" stroke="#840000" stroke-width="0.15"/><polygon points="86.36,54.61 86.36,55.88 85.60,55.88 86.36,57.15 87.12,55.88 86.36,55.88" fill="#840000" stroke="#840000" stroke-width="0.254"/><line x1="86.36" y1="54.61" x2="86.36" y2="54.61" stroke="#840000" stroke-width="0.15"/><text x="86.36" y="60.13" font-size="1.27" text-anchor="middle" fill="#006464">-15V</text></g>
<g data-ref="R2"><rect x="83.82" y="23.11" width="5.08" height="2.03" fill="none" stroke="#840000" stroke-width="0.254"/><line x1="82.55" y1="24.13" x2="83.82" y2="24.13" stroke="#840000" stroke-width="0.15"/><line x1="90.17" y1="24.13" x2="88.90" y2="24.13" stroke="#840000" stroke-width="0.15"/><line x1="82.55" y1="24.13" x2="83.82" y2="24.13" stroke="#840000" stroke-width="0.15"/><line x1="90.17" y1="24.13" x2="88.90" y2="24.13" stroke="#840000" stroke-width="0.15"/><text x="86.36" y="18.22" font-size="1.27" text-anchor="middle" fill="#006464">R2</text><text x="86.36" y="20.76" font-size="1.27" text-anchor="middle" fill="#006464">4.7K</text></g>
<g data-ref="RV1"><rect x="62.23" y="39.62" width="5.08" height="2.03" fill="none" stroke="#840000" stroke-width="0.254"/><polygon points="64.77,41.78 65.28,42.93 64.26,42.93 64.77,41.78" fill="#840000" stroke="#840000" stroke-width="0.254"/><polyline points="64.77,43.18 64.77,42.16" fill="none" stroke="#840000" stroke-width="0.254"/><line x1="68.58" y1="40.64" x2="67.31" y2="40.64" stroke="#840000" stroke-width="0.15"/><text x="67.94" y="40.59" font-size="1.00" text-anchor="middle" fill="#A90000">1</text><line x1="60.96" y1="40.64" x2="62.23" y2="40.64" stroke="#840000" stroke-width="0.15"/><text x="61.59" y="40.59" font-size="1.00" text-anchor="middle" fill="#A90000">3</text><line x1="64.77" y1="44.45" x2="64.77" y2="43.18" stroke="#840000" stroke-width="0.15"/><text transform="translate(64.72 43.81) rotate(-90)" x="0" y="0.00" font-size="1.00" text-anchor="middle" fill="#A90000">2</text><line x1="68.58" y1="40.64" x2="67.31" y2="40.64" stroke="#840000" stroke-width="0.15"/><text x="67.94" y="40.59" font-size="1.00" text-anchor="middle" fill="#A90000">1</text><line x1="60.96" y1="40.64" x2="62.23" y2="40.64" stroke="#840000" stroke-width="0.15"/><text x="61.59" y="40.59" font-size="1.00" text-anchor="middle" fill="#A90000">3</text><line x1="64.77" y1="44.45" x2="64.77" y2="43.18" stroke="#840000" stroke-width="0.15"/><text transform="translate(64.72 43.81) rotate(-90)" x="0" y="0.00" font-size="1.00" text-anchor="middle" fill="#A90000">2</text><text x="64.77" y="34.73" font-size="1.27" text-anchor="middle" fill="#006464">RV1</text><text x="64.77" y="37.27" font-size="1.27" text-anchor="middle" fill="#006464">10K</text></g>
<g data-ref="U1"><polygon points="93.98,46.99 83.82,41.91 83.82,52.07 93.98,46.99" fill="#FFFFC2" stroke="#840000" stroke-width="0.254"/><line x1="81.28" y1="44.45" x2="83.82" y2="44.45" stroke="#840000" stroke-width="0.15"/><text x="82.55" y="44.40" font-size="1.00" text-anchor="middle" fill="#A90000">3</text><line x1="81.28" y1="49.53" x2="83.82" y2="49.53" stroke="#840000" stroke-width="0.15"/><text x="82.55" y="49.48" font-size="1.00" text-anchor="middle" fill="#A90000">2</text><line x1="86.36" y1="39.37" x2="86.36" y2="43.18" stroke="#840000" stroke-width="0.15"/><text transform="translate(86.31 41.28) rotate(-90)" x="0" y="0.00" font-size="1.00" text-anchor="middle" fill="#A90000">7</text><line x1="86.36" y1="54.61" x2="86.36" y2="50.80" stroke="#840000" stroke-width="0.15"/><text transform="translate(86.31 52.70) rotate(-90)" x="0" y="0.00" font-size="1.00" text-anchor="middle" fill="#A90000">4</text><line x1="96.52" y1="46.99" x2="93.98" y2="46.99" stroke="#840000" stroke-width="0.15"/><text x="95.25" y="46.94" font-size="1.00" text-anchor="middle" fill="#A90000">6</text><line x1="81.28" y1="44.45" x2="83.82" y2="44.45" stroke="#840000" stroke-width="0.15"/><text x="82.55" y="44.40" font-size="1.00" text-anchor="middle" fill="#A90000">3</text><line x1="81.28" y1="49.53" x2="83.82" y2="49.53" stroke="#840000" stroke-width="0.15"/><text x="82.55" y="49.48" font-size="1.00" text-anchor="middle" fill="#A90000">2</text><line x1="86.36" y1="39.37" x2="86.36" y2="43.18" stroke="#840000" stroke-width="0.15"/><text transform="translate(86.31 41.28) rotate(-90)" x="0" y="0.00" font-size="1.00" text-anchor="middle" fill="#A90000">7</text><line x1="86.36" y1="54.61" x2="86.36" y2="50.80" stroke="#840000" stroke-width="0.15"/><text transform="translate(86.31 52.70) rotate(-90)" x="0" y="0.00" font-size="1.00" text-anchor="middle" fill="#A90000">4</text><line x1="96.52" y1="46.99" x2="93.98" y2="46.99" stroke="#840000" stroke-width="0.15"/><text x="95.25" y="46.94" font-size="1.00" text-anchor="middle" fill="#A90000">6</text><text x="101.60" y="42.10" font-size="1.27" text-anchor="middle" fill="#006464">U1</text><text x="101.60" y="44.39" font-size="1.27" text-anchor="middle" fill="#006464">OPA1641</text></g>
<g data-ref="C2"><polyline points="86.87,33.78 86.87,29.72" fill="none" stroke="#840000" stroke-width="0.508"/><polyline points="88.39,33.78 88.39,29.72" fill="none" stroke="#840000" stroke-width="0.508"/><line x1="83.82" y1="31.75" x2="86.61" y2="31.75" stroke="#840000" stroke-width="0.15"/><line x1="91.44" y1="31.75" x2="88.65" y2="31.75" stroke="#840000" stroke-width="0.15"/><line x1="83.82" y1="31.75" x2="86.61" y2="31.75" stroke="#840000" stroke-width="0.15"/><line x1="91.44" y1="31.75" x2="88.65" y2="31.75" stroke="#840000" stroke-width="0.15"/><text x="87.88" y="28.38" font-size="1.27" text-anchor="middle" fill="#006464">C2</text><text x="91.95" y="30.67" font-size="1.27" text-anchor="middle" fill="#006464">220p</text></g>
<g data-ref="R1"><rect x="52.07" y="39.62" width="5.08" height="2.03" fill="none" stroke="#840000" stroke-width="0.254"/><line x1="50.80" y1="40.64" x2="52.07" y2="40.64" stroke="#840000" stroke-width="0.15"/><line x1="58.42" y1="40.64" x2="57.15" y2="40.64" stroke="#840000" stroke-width="0.15"/><line x1="50.80" y1="40.64" x2="52.07" y2="40.64" stroke="#840000" stroke-width="0.15"/><line x1="58.42" y1="40.64" x2="57.15" y2="40.64" stroke="#840000" stroke-width="0.15"/><text x="54.61" y="34.73" font-size="1.27" text-anchor="middle" fill="#006464">R1</text><text x="54.61" y="37.27" font-size="1.27" text-anchor="middle" fill="#006464">4.7K</text></g>
<g data-ref="C1"><polyline points="45.21,38.61 45.21,42.67" fill="none" stroke="#840000" stroke-width="0.508"/><polyline points="43.69,38.61 43.69,42.67" fill="none" stroke="#840000" stroke-width="0.508"/><line x1="48.26" y1="40.64" x2="45.47" y2="40.64" stroke="#840000" stroke-width="0.15"/><line x1="40.64" y1="40.64" x2="43.43" y2="40.64" stroke="#840000" stroke-width="0.15"/><line x1="48.26" y1="40.64" x2="45.47" y2="40.64" stroke="#840000" stroke-width="0.15"/><line x1="40.64" y1="40.64" x2="43.43" y2="40.64" stroke="#840000" stroke-width="0.15"/><text x="44.45" y="33.46" font-size="1.27" text-anchor="middle" fill="#006464">C1</text><text x="44.45" y="36.00" font-size="1.27" text-anchor="middle" fill="#006464">100u</text></g>
<g data-ref="#PWR01"><polyline points="85.60,38.10 86.36,36.83" fill="none" stroke="#840000" stroke-width="0.254"/><polyline points="86.36,36.83 87.12,38.10" fill="none" stroke="#840000" stroke-width="0.254"/><polyline points="86.36,39.37 86.36,36.83" fill="none" stroke="#840000" stroke-width="0.254"/><line x1="86.36" y1="39.37" x2="86.36" y2="39.37" stroke="#840000" stroke-width="0.15"/><line x1="86.36" y1="39.37" x2="86.36" y2="39.37" stroke="#840000" stroke-width="0.15"/><text x="90.42" y="38.80" font-size="1.27" text-anchor="middle" fill="#006464">+15V</text></g>
<polyline points="96.52,24.13 90.17,24.13" fill="none" stroke="#009600" stroke-width="0.15"/>
<polyline points="73.66,24.13 73.66,40.64" fill="none" stroke="#009600" stroke-width="0.15"/>
<polyline points="80.01,31.75 83.82,31.75" fill="none" stroke="#009600" stroke-width="0.15"/>
<polyline points="96.52,46.99 99.06,46.99" fill="none" stroke="#009600" stroke-width="0.15"/>
<polyline points="82.55,24.13 73.66,24.13" fill="none" stroke="#009600" stroke-width="0.15"/>
<polyline points="96.52,24.13 96.52,31.75" fill="none" stroke="#009600" stroke-width="0.15"/>
<polyline points="64.77,44.45 80.01,44.45" fill="none" stroke="#009600" stroke-width="0.15"/>
<polyline points="80.01,31.75 80.01,44.45" fill="none" stroke="#009600" stroke-width="0.15"/>
<polyline points="80.01,44.45 81.28,44.45" fill="none" stroke="#009600" stroke-width="0.15"/>
<polyline points="58.42,40.64 60.96,40.64" fill="none" stroke="#009600" stroke-width="0.15"/>
<polyline points="96.52,31.75 96.52,46.99" fill="none" stroke="#009600" stroke-width="0.15"/>
<polyline points="73.66,40.64 68.58,40.64" fill="none" stroke="#009600" stroke-width="0.15"/>
<polyline points="48.26,40.64 50.80,40.64" fill="none" stroke="#009600" stroke-width="0.15"/>
<polyline points="91.44,31.75 96.52,31.75" fill="none" stroke="#009600" stroke-width="0.15"/>
<circle cx="96.52" cy="46.99" r="0.46" fill="#009600"/>
<circle cx="96.52" cy="31.75" r="0.46" fill="#009600"/>
<circle cx="80.01" cy="44.45" r="0.46" fill="#009600"/>
</g></svg>